HIERARCHY
ROOT Hips
{
	OFFSET -3.958830 18.904000 13.208200
	CHANNELS 6 Xposition Yposition Zposition Zrotation Yrotation Xrotation 
	JOINT LHipJoint
	{
		OFFSET 0.000000 0.000000 0.000000
		CHANNELS 3 Zrotation Yrotation Xrotation
		JOINT LeftUpLeg
		{
			OFFSET 1.800000 -1.400000 0.085000
			CHANNELS 3 Zrotation Yrotation Xrotation
			JOINT LeftLeg
			{
				OFFSET 2.215000 -6.000000 0.000000
				CHANNELS 3 Zrotation Yrotation Xrotation
				JOINT LeftFoot
				{
					OFFSET 2.500000 -6.900000 0.000000
					CHANNELS 3 Zrotation Yrotation Xrotation
					JOINT LeftToeBase
					{
						OFFSET 0.200000 -0.500000 1.950000
						CHANNELS 3 Zrotation Yrotation Xrotation
						End Site
						{
							OFFSET 0.000000 0.000000 0.000000
						}
					}
				}
			}
		}
	}
	JOINT RHipJoint
	{
		OFFSET 0.000000 0.000000 0.000000
		CHANNELS 3 Zrotation Yrotation Xrotation
		JOINT RightUpLeg
		{
			OFFSET -1.800000 -1.400000 0.085000
			CHANNELS 3 Zrotation Yrotation Xrotation
			JOINT RightLeg
			{
				OFFSET -2.215000 -6.000000 0.000000
				CHANNELS 3 Zrotation Yrotation Xrotation
				JOINT RightFoot
				{
					OFFSET -2.500000 -6.900000 0.000000
					CHANNELS 3 Zrotation Yrotation Xrotation
					JOINT RightToeBase
					{
						OFFSET -0.200000 -0.500000 1.950000
						CHANNELS 3 Zrotation Yrotation Xrotation
						End Site
						{
							OFFSET 0.000000 0.000000 0.000000
						}
					}
				}
			}
		}
	}
	JOINT LowerBack
	{
		OFFSET 0.000000 0.000000 0.000000
		CHANNELS 3 Zrotation Yrotation Xrotation
		JOINT Spine
		{
			OFFSET -0.087000 1.940000 -0.288900
			CHANNELS 3 Zrotation Yrotation Xrotation
			JOINT Spine1
			{
				OFFSET 0.000000 1.950000 0.060000
				CHANNELS 3 Zrotation Yrotation Xrotation
				JOINT Neck
				{
					OFFSET 0.000000 0.000000 0.000000
					CHANNELS 3 Zrotation Yrotation Xrotation
					JOINT Neck1
					{
						OFFSET 0.000000 1.600000 0.340000
						CHANNELS 3 Zrotation Yrotation Xrotation
						JOINT Head
						{
							OFFSET 0.000000 1.667000 -0.240000
							CHANNELS 3 Zrotation Yrotation Xrotation
							End Site
							{
								OFFSET 0.000000 0.000000 0.000000
							}
						}
					}
				}
				JOINT LeftShoulder
				{
					OFFSET 0.000000 0.000000 0.000000
					CHANNELS 3 Zrotation Yrotation Xrotation
					JOINT LeftArm
					{
						OFFSET 2.700000 1.550000 -0.730000
						CHANNELS 3 Zrotation Yrotation Xrotation
						JOINT LeftForeArm
						{
							OFFSET 5.450000 0.000000 0.000000
							CHANNELS 3 Zrotation Yrotation Xrotation
							JOINT LeftHand
							{
								OFFSET 3.450000 0.000000 0.000000
								CHANNELS 3 Zrotation Yrotation Xrotation
								JOINT LeftHandIndex1
								{
									OFFSET 0.750000 0.000000 0.000000
									CHANNELS 3 Zrotation Yrotation Xrotation
									End Site
									{
										OFFSET 0.000000 0.000000 0.000000
									}
								}
							}
						}
					}
				}
				JOINT RightShoulder
				{
					OFFSET 0.000000 0.000000 0.000000
					CHANNELS 3 Zrotation Yrotation Xrotation
					JOINT RightArm
					{
						OFFSET -2.700000 1.550000 -0.730000
						CHANNELS 3 Zrotation Yrotation Xrotation
						JOINT RightForeArm
						{
							OFFSET -5.450000 0.000000 0.000000
							CHANNELS 3 Zrotation Yrotation Xrotation
							JOINT RightHand
							{
								OFFSET -3.450000 0.000000 0.000000
								CHANNELS 3 Zrotation Yrotation Xrotation
								JOINT RightHandIndex1
								{
									OFFSET -0.750000 0.000000 0.000000
									CHANNELS 3 Zrotation Yrotation Xrotation
									End Site
									{
										OFFSET 0.000000 0.000000 0.000000
									}
								}
							}
						}
					}
				}
			}
		}
	}
}
MOTION
Frames: 6
Frame Time: 0.016667
-2.573920 16.442630 -0.719680 -9.584979 -33.715081 -6.227704 -15.534087 13.763253 2.976570 1.310105 -3.562579 -13.250836 -9.892349 7.239937 20.069121 -0.364972 4.795533 2.822418 0.748070 0.558020 0.816670 17.994376 -8.148573 4.435700 -14.399919 4.424745 -28.954784 34.939007 -36.821201 57.664092 -2.913208 -13.226566 0.019556 0.315010 -0.158530 0.213690 -2.491998 -6.708416 -8.708126 2.729816 -7.390787 23.919540 -3.879906 -5.786936 14.547334 4.222154 -7.494929 -22.137955 -21.845588 18.791061 26.488305 -7.488960 15.935500 -23.326630 -11.535064 -31.957299 8.225753 -19.688510 -34.414863 -10.719207 8.662532 -44.962656 -6.038595 -2.975225 3.258087 0.678970 -0.129640 0.357480 0.100490 4.878819 33.478961 15.771191 2.651275 7.290016 -2.084825 -13.244079 -1.514221 -0.402120 2.754066 -1.175466 -0.095780 0.188370 -0.244680 -0.305720 
-2.581750 16.440420 -0.695270 -9.021780 -33.304713 -6.785935 -15.565315 13.692663 2.924012 0.407899 -3.615123 -12.894483 -9.286930 7.133249 20.536372 -0.369045 4.774041 2.832658 0.759080 0.574110 0.832030 17.997645 -7.969377 4.633393 -16.538875 3.904693 -31.035787 37.346950 -38.666734 57.384372 -2.975493 -13.423693 -0.032254 0.326460 -0.164460 0.218990 -2.484817 -6.821126 -8.783330 2.161469 -7.491546 24.198408 -3.605470 -6.103572 14.516108 3.778870 -7.356016 -21.814186 -21.578443 18.621660 26.761187 -8.100610 15.984890 -23.412780 -10.237437 -32.597480 7.319412 -18.268096 -35.540565 -11.346195 5.616587 -47.827169 -5.161869 -2.921410 3.330557 0.671850 -0.121170 0.362740 0.100700 4.354245 33.581815 15.904538 3.233147 7.306665 -2.083154 -13.658296 -1.125868 -0.445622 2.731866 -1.207543 -0.091620 0.186570 -0.252810 -0.308840 
-2.588270 16.439370 -0.666820 -9.069740 -33.214342 -6.860534 -15.569144 13.612682 2.870729 0.275168 -3.605730 -12.597565 -9.220795 7.166598 20.727179 -0.363804 4.811618 2.820200 0.755360 0.568090 0.830250 18.018045 -7.837146 4.818955 -17.981960 3.662423 -32.732450 39.153712 -40.415322 57.649571 -3.040201 -13.654946 -0.089158 0.325830 -0.159560 0.232320 -2.548959 -6.833526 -8.840110 2.642336 -7.689356 24.315505 -3.453697 -6.280367 14.253082 3.373228 -7.327376 -21.484907 -21.592325 18.386438 27.102959 -8.549830 15.886300 -22.954370 -9.685035 -33.349787 6.416168 -16.973707 -36.462025 -11.514617 3.846146 -49.573354 -4.545042 -2.928140 3.388124 0.658030 -0.105640 0.356790 0.098540 4.512879 33.917659 16.014510 3.619865 7.332318 -2.463552 -14.936864 -1.648689 -0.479118 2.738819 -1.268549 -0.086280 0.176380 -0.247120 -0.308880 
-2.583820 16.437490 -0.630000 -9.821082 -32.893495 -6.292885 -15.525994 13.493091 2.801549 0.737428 -3.642133 -12.636503 -9.330751 7.248594 20.956289 -0.401123 4.884375 2.789408 0.753100 0.553770 0.829920 18.078838 -7.777234 4.984136 -18.850464 3.627313 -34.223042 39.999675 -42.214683 58.821988 -3.125440 -13.960262 -0.157578 0.329920 -0.142270 0.239750 -2.773639 -6.671445 -8.826641 4.659908 -8.430480 24.243468 -3.946431 -6.578063 13.217884 2.979370 -7.479953 -20.752366 -21.932623 18.522441 27.294737 -8.346900 15.690830 -23.078730 -10.098399 -33.881264 5.353328 -16.479788 -37.631160 -10.601708 2.769199 -50.512862 -4.005785 -3.002549 3.374840 0.670090 -0.093120 0.344960 0.088090 5.579335 33.960322 15.775611 2.674783 8.327161 -2.634800 -14.735123 -3.712618 -0.321795 2.776772 -1.244417 -0.099670 0.193590 -0.221280 -0.320340 
-2.580180 16.440430 -0.580750 -11.254557 -32.913355 -4.948589 -15.448323 13.315296 2.695882 1.977663 -3.603370 -12.953172 -9.748524 7.459164 21.101884 -0.414501 4.977782 2.763186 0.744390 0.549020 0.812650 18.173078 -7.782119 5.128237 -19.121690 4.037244 -35.575040 40.144134 -43.851299 60.528800 -3.212866 -14.327130 -0.230709 0.340960 -0.108270 0.235600 -3.134347 -6.294214 -8.725433 8.253241 -9.357309 23.209830 -5.162722 -6.655002 12.334883 2.812740 -7.893026 -19.789934 -22.565042 18.161424 26.848488 -8.429940 15.118150 -22.230340 -10.795900 -33.878332 4.445871 -17.267164 -39.394839 -8.726341 3.501931 -50.685428 -4.051383 -3.123645 3.294210 0.646950 -0.066210 0.319850 0.096260 6.438131 33.626695 15.518163 2.055078 8.985283 -2.536470 -14.285066 -4.332256 -0.299983 2.778711 -1.237649 -0.111920 0.214760 -0.211860 -0.311430 
-2.585140 16.443010 -0.533490 -12.316676 -33.344354 -4.069950 -15.390761 13.123182 2.626339 3.600198 -3.469503 -12.794915 -11.270986 7.983983 20.743512 -0.404076 5.195502 2.702047 0.734730 0.543350 0.798980 18.246666 -7.774299 5.231867 -19.511040 4.659118 -36.322653 40.061319 -45.263403 62.331633 -3.294316 -14.663491 -0.282810 0.355360 -0.067350 0.209490 -3.433290 -5.925182 -8.656768 11.192810 -9.742843 22.172323 -6.096877 -6.433294 11.848075 2.574013 -8.165012 -19.130987 -23.128836 17.918380 26.987403 -7.988620 14.574910 -21.461110 -10.881774 -33.958743 3.757662 -17.967165 -40.948919 -6.998743 4.408685 -50.218410 -4.122042 -3.217381 3.183563 0.635990 -0.045850 0.292900 0.108040 6.817738 33.463261 15.283777 1.562629 9.697245 -2.522639 -13.703062 -5.619420 -0.225649 2.801743 -1.205292 -0.141750 0.263920 -0.204980 -0.306170 
